<svg version="1.2" xmlns="http://www.w3.org/2000/svg" viewBox="0 0 800 800" width="800" height="800">
  <defs>
    <radialGradient id="a" cx="0" cy="0" r="1" fx=".475" fy=".124" gradientUnits="userSpaceOnUse" gradientTransform="rotate(48.622 -163.833 381.61)scale(286.656 836.462)">
      <stop offset="0" stop-color="#ac8fff"/>
      <stop offset="1" stop-color="#f9a0ff"/>
    </radialGradient>
    <radialGradient id="b" cx="0" cy="0" r="1" fx=".427" fy=".002" gradientUnits="userSpaceOnUse" gradientTransform="rotate(35.815 -329.987 453.61)scale(531.545 1551.05)">
      <stop offset=".004" stop-color="#8c64ff"/>
      <stop offset="1" stop-color="#f9a0ff"/>
    </radialGradient>
  </defs>
<g transform="scale(0.5) translate(400,400)">
    <path fill-rule="evenodd" d="M417.5 669c-153.74 0-278-124.27-278-278s124.26-278 278-278c153.73 0 278 124.27 278 278s-124.27 278-278 278" style="fill:url(#a)" transform="translate(-18)"/>
  <path d="M493.54 570.19C315.82 653.35 138.1 647.8 95.98 557.76c-42.13-90.04 67.47-230.04 245.2-313.2C518.9 161.4 696.61 166.96 738.74 257c42.13 90.03-67.47 230.03-245.2 313.19z" style="fill:none;stroke:#777;stroke-linecap:round;stroke-miterlimit:10;stroke-width:87" transform="translate(-18)"/>
  <path d="M493.54 570.19C315.82 653.35 138.1 647.8 95.98 557.76c-42.13-90.04 67.47-230.04 245.2-313.2C518.9 161.4 696.61 166.96 738.74 257c42.13 90.03-67.47 230.03-245.2 313.19z" style="fill:none;stroke:#676767;stroke-linecap:round;stroke-miterlimit:10;stroke-width:62" transform="translate(-18)"/>
  <path d="M493.54 570.19C315.82 653.35 138.1 647.8 95.98 557.76c-42.13-90.04 67.47-230.04 245.2-313.2C518.9 161.4 696.61 166.96 738.74 257c42.13 90.03-67.47 230.03-245.2 313.19z" style="fill:none;stroke:#484848;stroke-linecap:round;stroke-miterlimit:10;stroke-width:41" transform="translate(-18)"/>
  <path fill-rule="evenodd" d="M440.88 292.95C287.18 289.78 144.1 660.73 141.5 389c-1.47-153.73 124.26-278 278-278 174.7-7.52 323.24 204.69 205.25 219.97-42.97 5.57-152.72-37.38-183.87-38.02" style="fill:url(#b)" transform="translate(-18)"/>
</g>
</svg>
